#!OML:ASF H:\LiuWeirdWalks\Patient Classification 1\Patient 1\Session 1\male.ASF
:FULLY-SPECIFIED
:DEGREES
629
root 1.96429 17.8873 33.8848 0.192474 0.608626 1.59572
lowerback -0.302136 1.92639 0.362608
upperback 3.73661 2.56754 -0.0566035
thorax 4.03209 1.29302 -0.162878
lowerneck -18.8464 -4.58461 -2.7025
upperneck 15.6721 -6.21865 3.53655
head 8.15483 -2.74584 0.845037
rclavicle -4.56708e-014 6.36111e-015
rhumerus -28.7661 -16.3922 -75.8374
rradius 28.38
rwrist -7.97252
rhand -19.4183 0.236918
rfingers 7.12502
rthumb 6.90137 -29.6306
lclavicle -4.56708e-014 6.36111e-015
lhumerus -9.10717 -12.5601 89.1395
lradius 30.5446
lwrist 15.146
lhand -20.2157 -3.73827
lfingers 7.12502
lthumb 6.13157 26.153
rfemur -25.2872 -10.3282 15.5067
rtibia 44.9537
rfoot -13.461 -19.7416
rtoes -5.12266
lfemur -5.94954 -2.81015 -24.5282
ltibia 27.1425
lfoot -9.76451 19.3645
ltoes -8.12999
630
root 1.94679 17.8914 33.9736 0.267808 0.524553 1.93582
lowerback -0.268663 1.5564 -0.144746
upperback 3.72576 2.08485 -0.0362443
thorax 3.97885 1.03516 0.1214
lowerneck -18.6519 -4.42196 -2.57743
upperneck 15.5345 -6.00107 3.39584
head 8.05924 -2.65458 0.810873
rclavicle 3.35946e-014 -1.63003e-014
rhumerus -29.6445 -16.4143 -75.5491
rradius 27.5049
rwrist -7.10894
rhand -19.4168 0.145822
rfingers 7.12502
rthumb 6.90283 -29.7216
lclavicle 3.35946e-014 -1.63003e-014
lhumerus -8.32066 -13.5552 89.067
lradius 31.7421
lwrist 15.4955
lhand -19.9705 -3.70836
lfingers 7.12502
lthumb 6.36828 26.1759
rfemur -25.8489 -9.25463 15.0031
rtibia 43.5734
rfoot -13.0724 -18.8953
rtoes -5.51292
lfemur -5.30581 -2.80695 -24.8665
ltibia 26.3831
lfoot -9.70775 19.4625
ltoes -8.08852
631
root 1.92842 17.8948 34.0635 0.298683 0.449945 2.21631
lowerback -0.204889 1.17496 -0.597915
upperback 3.72381 1.58424 0.0066164
thorax 3.92802 0.769972 0.39872
lowerneck -18.4165 -4.25074 -2.44386
upperneck 15.3651 -5.76979 3.23485
head 7.9454 -2.55893 0.770902
rclavicle -2.36554e-014 -4.37326e-015
rhumerus -30.5199 -16.4047 -75.2044
rradius 26.6642
rwrist -6.23073
rhand -19.3465 0.0622285
rfingers 7.12502
rthumb 6.9707 -29.803
lclavicle -2.36554e-014 -4.37326e-015
lhumerus -7.55606 -14.365 88.9059
lradius 32.9194
lwrist 15.9319
lhand -19.6757 -3.71248
lfingers 7.12502
lthumb 6.6529 26.163
rfemur -26.2845 -8.16882 14.5275
rtibia 42.1684
rfoot -12.6007 -18.0947
rtoes -5.85236
lfemur -4.60349 -2.83161 -25.1445
ltibia 25.621
lfoot -9.65516 19.5824
ltoes -8.02177
632
root 1.90973 17.8973 34.1542 0.305301 0.390536 2.47174
lowerback -0.131758 0.788216 -1.01913
upperback 3.72952 1.07491 0.0572164
thorax 3.88948 0.501427 0.667221
lowerneck -18.1533 -4.07909 -2.30602
upperneck 15.1747 -5.53661 3.06164
head 7.82027 -2.46345 0.726589
rclavicle 3.18055e-015 -1.03368e-014
rhumerus -31.3959 -16.3954 -74.7958
rradius 25.8793
rwrist -5.36828
rhand -19.196 0.000999559
rfingers 7.12502
rthumb 7.11599 -29.8594
lclavicle 3.18055e-015 -1.03368e-014
lhumerus -6.79597 -15.0331 88.6755
lradius 34.0614
lwrist 16.502
lhand -19.3864 -3.80572
lfingers 7.12502
lthumb 6.93215 26.0608
rfemur -26.6233 -7.10382 14.0486
rtibia 40.7564
rfoot -12.011 -17.3209
rtoes -6.17471
lfemur -3.86649 -2.88731 -25.4027
ltibia 24.8618
lfoot -9.58873 19.7208
ltoes -7.96837
633
root 1.89017 17.8991 34.2443 0.281012 0.339891 2.60369
lowerback -0.0544233 0.3956 -1.31726
upperback 3.80666 0.553692 0.142884
thorax 3.93243 0.229482 0.904094
lowerneck -18.0799 -3.90791 -2.15437
upperneck 15.0283 -5.30448 2.88097
head 7.74286 -2.36501 0.673364
rclavicle -1.0138e-014 4.77083e-015
rhumerus -32.1393 -16.4344 -74.3589
rradius 25.1492
rwrist -4.49174
rhand -18.9883 -0.0303469
rfingers 7.12502
rthumb 7.31646 -29.8838
lclavicle -1.0138e-014 4.77083e-015
lhumerus -5.89489 -15.5324 88.3538
lradius 35.1444
lwrist 17.186
lhand -19.1091 -3.90114
lfingers 7.12502
lthumb 7.19988 25.9564
rfemur -26.8479 -6.03399 13.6881
rtibia 39.3149
rfoot -11.2664 -16.5919
rtoes -6.43457
lfemur -3.13045 -2.96535 -25.5265
ltibia 24.1716
lfoot -9.54434 19.8823
ltoes -7.92743
634
root 1.87181 17.8999 34.3377 0.203021 0.310362 2.69485
lowerback 0.0424283 -0.000969114 -1.558
upperback 3.90048 0.0249033 0.242051
thorax 3.9891 -0.0451176 1.12285
lowerneck -17.9912 -3.74579 -2.0098
upperneck 14.8869 -5.08303 2.69666
head 7.66578 -2.27227 0.618733
rclavicle -5.71506e-015 -7.95139e-016
rhumerus -32.8955 -16.4421 -73.8547
rradius 24.4838
rwrist -3.66289
rhand -18.7348 -0.0300175
rfingers 7.12502
rthumb 7.56112 -29.8749
lclavicle -5.71506e-015 -7.95139e-016
lhumerus -4.99654 -15.8801 88.011
lradius 36.1645
lwrist 17.9707
lhand -18.8903 -3.98966
lfingers 7.12502
lthumb 7.411 25.8605
rfemur -26.928 -5.07002 13.3504
rtibia 37.8785
rfoot -10.3863 -15.8042
rtoes -6.60559
lfemur -2.35642 -3.03757 -25.6187
ltibia 23.5604
lfoot -9.55321 20.0471
ltoes -7.91089
635
root 1.8506 17.9026 34.4303 0.0259497 0.294929 2.24077
lowerback 0.263491 -0.39563 -1.27946
upperback 4.01598 -0.519764 0.50226
thorax 4.00068 -0.312984 1.21718
lowerneck -17.9051 -3.5872 -1.85437
upperneck 14.754 -4.86721 2.49817
head 7.59235 -2.18256 0.556656
rclavicle 8.44835e-016 1.19271e-015
rhumerus -33.6747 -16.4718 -73.2642
rradius 23.9189
rwrist -2.84462
rhand -18.4442 0.0241467
rfingers 7.12502
rthumb 7.8416 -29.8104
lclavicle 8.44835e-016 1.19271e-015
lhumerus -4.07911 -16.0878 87.665
lradius 37.1047
lwrist 18.8921
lhand -18.7553 -4.05872
lfingers 7.12502
lthumb 7.54135 25.7868
rfemur -26.814 -4.05606 13.6174
rtibia 36.4605
rfoot -9.39058 -15.0955
rtoes -6.70305
lfemur -1.51719 -3.13216 -25.1057
ltibia 23.0273
lfoot -9.61752 20.2149
ltoes -7.89915
636
root 1.82813 17.9041 34.5222 -0.109363 0.265975 1.83098
lowerback 0.476836 -0.780876 -1.07416
upperback 4.10377 -1.04943 0.76605
thorax 3.98916 -0.575726 1.3589
lowerneck -17.7889 -3.43774 -1.70467
upperneck 14.6186 -4.66074 2.28714
head 7.51388 -2.0989 0.490538
rclavicle 2.31087e-014 7.15625e-015
rhumerus -34.4842 -16.454 -72.5977
rradius 23.448
rwrist -2.09542
rhand -18.1391 0.0695398
rfingers 7.12502
rthumb 8.13609 -29.7538
lclavicle 2.31087e-014 7.15625e-015
lhumerus -3.14668 -16.1786 87.3337
lradius 37.9298
lwrist 19.8373
lhand -18.6967 -4.07402
lfingers 7.12502
lthumb 7.59794 25.7695
rfemur -26.7398 -3.07021 13.8527
rtibia 35.1668
rfoot -8.27407 -14.3619
rtoes -6.74272
lfemur -0.738738 -3.21995 -24.6305
ltibia 22.5024
lfoot -9.66712 20.373
ltoes -7.89935
637
root 1.80655 17.9031 34.619 -0.22321 0.248819 1.62469
lowerback 0.641917 -0.962378 -0.708565
upperback 4.15365 -1.30179 0.84166
thorax 3.94885 -0.690483 1.22664
lowerneck -17.5839 -3.56347 -1.89139
upperneck 14.5027 -4.80093 2.37954
head 7.45063 -2.17052 0.538527
rclavicle 1.10325e-014 -6.75868e-015
rhumerus -35.6679 -16.9957 -71.6396
rradius 23.1568
rwrist -1.43347
rhand -17.8384 0.133214
rfingers 7.12502
rthumb 8.42633 -29.6787
lclavicle 1.10325e-014 -6.75868e-015
lhumerus -2.1718 -16.8603 87.1286
lradius 38.61
lwrist 20.8157
lhand -18.6888 -4.03043
lfingers 7.12502
lthumb 7.60552 25.8128
rfemur -26.6944 -2.28602 13.8858
rtibia 34.0847
rfoot -7.12836 -13.4552
rtoes -6.81033
lfemur 0.0634748 -3.30324 -24.3873
ltibia 21.9195
lfoot -9.70238 20.5132
ltoes -7.88212
